<svg xmlns="http://www.w3.org/2000/svg" xmlns:xlink="http://www.w3.org/1999/xlink" class="preloader-logo" width="500" zoomAndPan="magnify" viewBox="0 0 375 374.999991" height="500" preserveAspectRatio="xMidYMid meet" version="1.0">
            <defs>
              <g/>
              <clipPath id="id1">
                <path d="M 65.8125 100.652344 L 198.792969 100.652344 L 198.792969 227.300781 L 65.8125 227.300781 Z M 65.8125 100.652344 " clip-rule="nonzero"/>
              </clipPath>
              <clipPath id="id2">
                <path d="M 195 100.652344 L 309.554688 100.652344 L 309.554688 177 L 195 177 Z M 195 100.652344 " clip-rule="nonzero"/>
              </clipPath>
              <clipPath id="id3">
                <path d="M 183.960938 151 L 298 151 L 298 227.300781 L 183.960938 227.300781 Z M 183.960938 151 " clip-rule="nonzero"/>
              </clipPath>
            </defs>
            <g clip-path="url(#id1)">
              <path fill="#ffffff" d="M 196.5 142.984375 C 189.304688 116.484375 167.539062 100.664062 138.277344 100.664062 L 65.8125 100.664062 L 67.242188 103.941406 C 73.382812 118.019531 87.277344 127.125 102.640625 127.128906 L 122.371094 127.128906 L 122.535156 127.125 C 123.285156 127.070312 126.054688 126.902344 130.210938 126.902344 C 134.210938 126.902344 138.28125 127.058594 142.304688 127.367188 L 142.699219 127.398438 C 158.09375 128.609375 179.183594 132.632812 192.21875 144.90625 L 192.386719 145.0625 C 192.453125 145.128906 192.523438 145.191406 192.589844 145.257812 L 198.792969 151.4375 Z M 198.484375 173.523438 L 198.46875 173.777344 C 194.554688 206.792969 171.242188 227.300781 137.628906 227.300781 L 91.402344 227.300781 L 91.402344 164.792969 L 93.738281 164.792969 C 107.273438 164.792969 118.285156 175.808594 118.285156 189.34375 L 118.285156 200.410156 L 138.757812 200.410156 C 148.84375 200.410156 157.335938 197.097656 163.320312 190.832031 C 169.410156 184.453125 172.628906 175.234375 172.628906 164.171875 L 172.628906 163.792969 C 172.628906 155.230469 170.746094 147.84375 167.03125 141.839844 L 163.5625 136.238281 L 169.785156 138.398438 C 177.507812 141.078125 183.773438 144.648438 188.40625 149.011719 C 195.175781 155.386719 198.566406 163.632812 198.484375 173.523438 " fill-opacity="1" fill-rule="nonzero"/>
            </g>
            <g clip-path="url(#id2)">
              <path fill="#ffffff" d="M 309.554688 100.753906 L 270.816406 139.300781 L 233.867188 176.0625 L 233.570312 176.0625 C 224.675781 176.0625 216.515625 172.996094 210.09375 167.84375 C 201.472656 160.953125 195.941406 150.316406 195.941406 138.40625 C 195.941406 128.015625 200.144531 118.601562 206.976562 111.765625 C 213.78125 104.957031 223.1875 100.753906 233.570312 100.753906 Z M 309.554688 100.753906 " fill-opacity="1" fill-rule="nonzero"/>
            </g>
            <g clip-path="url(#id3)">
              <path fill="#ffffff" d="M 297.355469 189.519531 C 297.355469 199.910156 293.152344 209.324219 286.320312 216.160156 C 279.515625 222.96875 270.109375 227.199219 259.703125 227.199219 L 183.960938 227.199219 L 222.699219 188.648438 L 259.648438 151.890625 L 259.753906 151.890625 C 268.648438 151.890625 276.804688 154.957031 283.230469 160.109375 C 291.851562 166.972656 297.355469 177.609375 297.355469 189.519531 Z M 297.355469 189.519531 " fill-opacity="1" fill-rule="nonzero"/>
            </g>
            
            
            
            
            
            
            
            
            
            
          </svg>